<svg width="45" height="45" viewBox="0 0 45 45" fill="none" xmlns="http://www.w3.org/2000/svg">
<path fill-rule="evenodd" clip-rule="evenodd" d="M26.9719 28.9613C24.4443 30.9808 21.2394 31.9559 18.0153 31.6863C14.7913 31.4166 11.7928 29.9227 9.63585 27.5113C7.47888 25.1 6.3271 21.9542 6.41707 18.7202C6.50705 15.4861 7.83194 12.4093 10.1197 10.1215C12.4074 7.83384 15.4842 6.50894 18.7183 6.41896C21.9523 6.32899 25.0981 7.48077 27.5095 9.63775C29.9208 11.7947 31.4147 14.7932 31.6844 18.0172C31.954 21.2413 30.9789 24.4462 28.9594 26.9738L38.6269 36.6394C38.765 36.7681 38.8758 36.9234 38.9527 37.0959C39.0296 37.2684 39.0709 37.4546 39.0742 37.6434C39.0776 37.8322 39.0428 38.0198 38.9721 38.1949C38.9014 38.37 38.7961 38.529 38.6626 38.6626C38.529 38.7961 38.37 38.9014 38.1949 38.9721C38.0198 39.0428 37.8322 39.0776 37.6434 39.0742C37.4546 39.0709 37.2684 39.0296 37.0959 38.9527C36.9234 38.8759 36.7681 38.765 36.6394 38.6269L26.9719 28.9613ZM12.1125 26.0325C10.7363 24.6562 9.79902 22.9028 9.41907 20.9939C9.03912 19.0851 9.23356 17.1064 9.97782 15.3081C10.7221 13.5097 11.9828 11.9723 13.6005 10.8902C15.2183 9.80809 17.1205 9.22984 19.0668 9.22853C21.0131 9.22722 22.9161 9.80291 24.5353 10.8828C26.1545 11.9628 27.4173 13.4984 28.164 15.2958C28.9106 17.0932 29.1077 19.0716 28.7304 20.981C28.353 22.8903 27.4181 24.645 26.0437 26.0231L26.0344 26.0325L26.025 26.04C24.1783 27.8824 21.6758 28.9165 19.0672 28.9151C16.4586 28.9137 13.9572 27.8769 12.1125 26.0325Z" fill="#F5F5F5"/>
</svg>
