<svg width="35" height="18" viewBox="0 0 35 18" fill="none" xmlns="http://www.w3.org/2000/svg">
<path d="M5.98047 1.63867C7.12682 0.752869 8.28772 0.585972 9.49219 0.889648C10.7405 1.20446 12.0639 2.03505 13.4258 3.21484C14.7797 4.38774 16.118 5.85678 17.3994 7.37598V7.37695C19.1848 9.49135 20.9924 11.4087 22.9199 12.3955C23.9019 12.8982 24.941 13.1737 26.0381 13.0977C27.1359 13.0215 28.2297 12.5981 29.3281 11.8037L29.3594 11.7812L29.3877 11.7559C30.2535 10.9839 31.0704 10.0851 31.8457 9.05176C30.871 11.3748 29.6704 13.2782 28.3906 14.668C27.0149 16.1618 25.5933 17.0143 24.3027 17.2314C22.8072 17.3592 21.3069 16.7617 19.7275 15.6963C18.1336 14.6209 16.5687 13.1485 14.9404 11.667C13.391 10.258 11.7999 8.85035 10.082 7.90723L9.7373 7.72559C9.61497 7.6617 9.49225 7.59708 9.36621 7.53125L9.33789 7.5166L9.30762 7.50391C7.67643 6.82467 6.04144 6.78225 4.45996 7.39062C3.47872 7.76815 2.54063 8.38648 1.64648 9.22266C1.8162 8.78531 1.98686 8.34873 2.15723 7.91211L2.16016 7.90332C2.29489 7.54471 2.29631 7.54021 2.43066 7.18262C3.57973 4.27659 4.79493 2.55488 5.98047 1.63867Z" stroke="#302E2E" stroke-width="1.5"/>
</svg>
